<svg viewBox="0 0 200 200" xmlns="http://www.w3.org/2000/svg"><path d="m162.79 22.18a100.12 100.12 0 0 0 -91.79-17.9v70.9z" fill="#3eb39f"/><path d="m64 112.7v-106.02a100.2 100.2 0 0 0 -61.39 70.58z" fill="#3eb39f"/><path d="m198.81 115.48a100.73 100.73 0 0 0 1.19-15.48 99.72 99.72 0 0 0 -31.62-73l-61.38 35.47 24.89 14.37z" fill="#97798d"/><path d="m136 87.3v106a100.19 100.19 0 0 0 61.4-70.55z" fill="#97798d"/><g fill="#4892c7"><path d="m64 120.78-62.81-36.26a100.74 100.74 0 0 0 -1.19 15.48 99.72 99.72 0 0 0 31.62 73l61.38-35.47z"/><path d="m116.84 131.85-16.84 9.72-62.79 36.25a100.07 100.07 0 0 0 91.79 17.9v-70.89z"/></g></svg>